<?xml version="1.0" encoding="UTF-8" standalone="no"?>
<svg
   xmlns:dc="http://purl.org/dc/elements/1.1/"
   xmlns:cc="http://creativecommons.org/ns#"
   xmlns:rdf="http://www.w3.org/1999/02/22-rdf-syntax-ns#"
   xmlns:svg="http://www.w3.org/2000/svg"
   xmlns="http://www.w3.org/2000/svg"
   xmlns:sodipodi="http://sodipodi.sourceforge.net/DTD/sodipodi-0.dtd"
   xmlns:inkscape="http://www.inkscape.org/namespaces/inkscape"
   fill="#000000"
   viewBox="0 0 24 24"
   width="24px"
   height="24px"
   version="1.1"
   id="svg22"
   sodipodi:docname="lupa.svg"
   inkscape:version="1.0.2-2 (e86c870879, 2021-01-15)">
  <metadata
     id="metadata28">
    <rdf:RDF>
      <cc:Work
         rdf:about="">
        <dc:format>image/svg+xml</dc:format>
        <dc:type
           rdf:resource="http://purl.org/dc/dcmitype/StillImage" />
        <dc:title></dc:title>
      </cc:Work>
    </rdf:RDF>
  </metadata>
  <defs
     id="defs26" />
  <sodipodi:namedview
     pagecolor="#ffffff"
     bordercolor="#666666"
     borderopacity="1"
     objecttolerance="10"
     gridtolerance="10"
     guidetolerance="10"
     inkscape:pageopacity="0"
     inkscape:pageshadow="2"
     inkscape:window-width="1366"
     inkscape:window-height="705"
     id="namedview24"
     showgrid="false"
     inkscape:snap-global="true"
     inkscape:zoom="22.416667"
     inkscape:cx="3.4126394"
     inkscape:cy="12"
     inkscape:window-x="-8"
     inkscape:window-y="-8"
     inkscape:window-maximized="1"
     inkscape:current-layer="svg22" />
  <path
     d="M 9 2 C 5.1458514 2 2 5.1458514 2 9 C 2 12.854149 5.1458514 16 9 16 C 10.747998 16 12.345009 15.348024 13.574219 14.28125 L 14 14.707031 L 14 16 L 20 22 L 22 20 L 16 14 L 14.707031 14 L 14.28125 13.574219 C 15.348024 12.345009 16 10.747998 16 9 C 16 5.1458514 12.854149 2 9 2 z M 9 4 C 11.773268 4 14 6.2267316 14 9 C 14 11.773268 11.773268 14 9 14 C 6.2267316 14 4 11.773268 4 9 C 4 6.2267316 6.2267316 4 9 4 z"
     id="path20"
     style="fill:#ffffff;fill-opacity:1" />
</svg>
